<?xml version="1.0" encoding="UTF-8" standalone="no"?>
<svg
   width="256"
   height="256"
   fill="none"
   version="1.1"
   id="svg10"
   sodipodi:docname="logo.svg"
   inkscape:version="1.2.2 (732a01da63, 2022-12-09)"
   xmlns:inkscape="http://www.inkscape.org/namespaces/inkscape"
   xmlns:sodipodi="http://sodipodi.sourceforge.net/DTD/sodipodi-0.dtd"
   xmlns="http://www.w3.org/2000/svg"
   xmlns:svg="http://www.w3.org/2000/svg">
  <defs
     id="defs14" />
  <sodipodi:namedview
     id="namedview12"
     pagecolor="#ffffff"
     bordercolor="#000000"
     borderopacity="0.25"
     inkscape:showpageshadow="2"
     inkscape:pageopacity="0.0"
     inkscape:pagecheckerboard="0"
     inkscape:deskcolor="#d1d1d1"
     showgrid="false"
     inkscape:zoom="2.6746032"
     inkscape:cx="156.28487"
     inkscape:cy="88.611276"
     inkscape:window-width="1920"
     inkscape:window-height="1009"
     inkscape:window-x="-8"
     inkscape:window-y="-8"
     inkscape:window-maximized="1"
     inkscape:current-layer="svg10" />
  <path
     d="m 185.12841,107.83489 a 7.9118288,7.9118288 0 0 1 7.96399,-7.850974 7.9118288,7.9118288 0 0 1 7.964,7.850974 7.9118288,7.9118288 0 0 1 -7.964,7.85097 7.9118288,7.9118288 0 0 1 -7.96399,-7.85097 z m -17.24953,17.01478 a 7.9118288,7.9118288 0 0 1 7.964,-7.85966 7.9118288,7.9118288 0 0 1 7.9553,7.85966 7.9118288,7.9118288 0 0 1 -7.9553,7.85097 7.9118288,7.9118288 0 0 1 -7.964,-7.85097 z m 42.46305,-7.85966 a 7.9118288,7.9118288 0 0 0 -7.964,7.85966 c 0,4.33846 3.56467,7.85097 7.964,7.85097 a 7.9118288,7.9118288 0 0 0 7.96399,-7.85097 7.9118288,7.9118288 0 0 0 -7.96399,-7.85966 z m -25.21352,24.87444 a 7.9118288,7.9118288 0 0 1 7.96399,-7.85967 7.9118288,7.9118288 0 0 1 7.964,7.85967 7.9118288,7.9118288 0 0 1 -7.964,7.85096 7.9118288,7.9118288 0 0 1 -7.96399,-7.85096 z"
     fill="#44ab4f"
     id="path4"
     style="stroke-width:8.69432" />
  <path
     fill-rule="evenodd"
     clip-rule="evenodd"
     d="m 138.53556,154.83637 0.0261,0.0261 0.0174,0.0348 c 12.3981,17.64946 28.14351,31.46473 53.8526,31.46473 34.02087,0 61.70357,-27.30015 61.70357,-60.86022 -3e-5,-33.516636 -27.7349,-60.860264 -61.7036,-60.860264 -18.91014,0 -33.55137,7.981383 -44.34102,19.031861 -10.56359,10.807036 -17.97984,24.239763 -25.29176,37.498593 l -0.73033,1.33023 c -7.47711,13.53705 -15.03247,26.75242 -23.97892,35.97709 -4.468884,4.60799 -9.189898,8.39001 -14.780344,10.98961 -5.607835,2.61699 -11.954687,3.99939 -19.605686,3.99939 -26.952384,0 -48.618622,-21.37933 -48.618622,-47.96655 0,-26.45681 21.796653,-47.957857 48.618622,-47.957857 21.770571,0 34.70772,12.154656 45.53214,28.395647 2.28661,-3.96462 4.72101,-7.998779 7.30323,-12.085108 C 104.27995,77.326525 88.595401,64.65021 63.70357,64.65021 29.682706,64.641516 2,91.941672 2,125.50174 c 0,33.5079 27.734872,60.86022 61.70357,60.86022 18.736254,0 33.36879,-7.98138 44.05411,-19.03186 7.21628,-7.45103 12.93714,-16.18882 18.1972,-25.28307 l 2.43441,-4.21675 2.23444,4.32108 c 1.69539,3.27776 4.99054,8.76387 7.91183,12.6937 z m 5.62522,-14.6934 0.0261,0.0348 c 11.38955,18.56237 24.72663,33.28185 48.24476,33.28185 26.82197,0 48.62732,-21.50105 48.62732,-47.95786 0,-26.595916 -21.66624,-47.957854 -48.62732,-47.957854 -15.71063,0 -25.82212,5.616529 -34.95115,14.971614 -7.45103,7.61622 -14.34563,19.62308 -20.43165,30.40403 l -0.46949,0.83466 0.17388,0.93898 c 0.40864,2.05186 1.79973,5.03401 3.18212,7.72925 1.44326,2.80827 3.07779,5.69478 4.20805,7.67708 z"
     fill="#44ab4f"
     id="path6"
     style="stroke-width:8.69432" />
  <path
     d="M 57.730574,103.90505 H 68.35503 v 15.71064 h 15.919295 v 10.45926 H 68.35503 v 15.70194 H 57.730574 V 130.08365 H 41.811279 v -10.46796 h 15.919295 z"
     fill="#44ab4f"
     id="path8"
     style="stroke-width:8.69432" />
</svg>
