<?xml version="1.0" encoding="UTF-8" standalone="no"?>
<svg
   width="120"
   height="120"
   viewBox="0 0 120 120"
   fill="none"
   version="1.1"
   id="svg24"
   sodipodi:docname="vkplay_icon.svg"
   inkscape:version="1.1.2 (b8e25be833, 2022-02-05)"
   xmlns:inkscape="http://www.inkscape.org/namespaces/inkscape"
   xmlns:sodipodi="http://sodipodi.sourceforge.net/DTD/sodipodi-0.dtd"
   xmlns="http://www.w3.org/2000/svg"
   xmlns:svg="http://www.w3.org/2000/svg">
  <defs
     id="defs28" />
  <sodipodi:namedview
     id="namedview26"
     pagecolor="#ffffff"
     bordercolor="#111111"
     borderopacity="1"
     inkscape:pageshadow="0"
     inkscape:pageopacity="0"
     inkscape:pagecheckerboard="1"
     showgrid="false"
     fit-margin-top="0"
     fit-margin-left="0"
     fit-margin-right="0"
     fit-margin-bottom="0"
     inkscape:zoom="1.9521633"
     inkscape:cx="111.67098"
     inkscape:cy="28.94225"
     inkscape:window-width="1920"
     inkscape:window-height="991"
     inkscape:window-x="-9"
     inkscape:window-y="-9"
     inkscape:window-maximized="1"
     inkscape:current-layer="svg24" />
  <path
     d="m 62.52,0 c 27.12,0 40.68,0 49.08,8.4 8.4,8.4 8.4,21.96 8.4,49.08 v 5.04 c 0,27.12 0,40.68 -8.4,49.08 -8.4,8.4 -21.96,8.4 -49.08,8.4 H 57.48 C 30.36,120 16.8,120 8.4,111.6 0,103.2 0,89.64 0,62.52 V 57.48 C 0,30.36 0,16.8 8.4,8.4 16.8,0 30.36,0 57.48,0 Z"
     fill="#0077ff"
     id="path14" />
  <path
     d="M 0.36,33.72 C 0,40.2 0,48 0,57.48 v 5.04 C 0,69.72 0,75.84 0.12,81.24 15.84,88.92 36.96,93.6 60,93.6 83.04,93.6 104.16,88.92 119.88,81.24 120,75.84 120,69.6 120,62.52 V 57.48 C 120,48 120,40.2 119.64,33.6 H 0.36 Z"
     fill="#0009b4"
     id="path16" />
  <circle
     cx="83.399902"
     cy="60.599998"
     stroke="#ffffff"
     stroke-width="11.9897"
     id="ellipse18"
     r="11.4" />
  <path
     d="M 50.4001,74.4003 23.9999,48"
     stroke="#ffffff"
     stroke-width="11.9897"
     id="path20" />
  <path
     d="M 50.4001,47.9999 23.9999,74.4001"
     stroke="#ffffff"
     stroke-width="11.9897"
     id="path22" />
</svg>
