<svg width="32" height="32" viewBox="0 0 32 32" fill="none" xmlns="http://www.w3.org/2000/svg">
<path fill-rule="evenodd" clip-rule="evenodd" d="M2.27733 0C1.02 0 0 1.01933 0 2.278V29.722C0 30.9807 1.02 32 2.27733 32H29.722C30.9807 32 32 30.9807 32 29.722V2.278C32 1.01933 30.9807 0 29.722 0H2.27733Z" fill="url(#paint0_linear_3827_48328)"/>
<path d="M15.0016 13.1915C15.2083 12.6802 15.7916 12.4322 16.3036 12.6395C16.8156 12.8469 17.063 13.4295 16.8563 13.9415L13.045 23.3722C12.8916 23.7502 12.525 23.9969 12.1176 23.9969H12.1003C11.6863 23.9895 11.3196 23.7282 11.1783 23.3395L6.19428 9.65219C6.00562 9.13219 6.27295 8.55886 6.79162 8.37019C7.31029 8.18019 7.88429 8.44819 8.07362 8.96686L12.1663 20.2082L15.0016 13.1915Z" fill="white"/>
<path d="M23.7842 8.96732C23.9742 8.44865 24.5482 8.18199 25.0662 8.36999C25.5848 8.55865 25.8528 9.13265 25.6635 9.65199L20.6802 23.3393C20.5382 23.728 20.1715 23.99 19.7582 23.9967H19.7402C19.3335 23.9967 18.9661 23.75 18.8135 23.372L17.1081 19.1533C16.9008 18.6407 17.1488 18.058 17.6608 17.8513C18.1715 17.644 18.7548 17.8907 18.9621 18.4033L19.6915 20.208L23.7842 8.96732Z" fill="white"/>
<defs>
<linearGradient id="paint0_linear_3827_48328" x1="-0.0795174" y1="0" x2="32.0454" y2="1.76185e-08" gradientUnits="userSpaceOnUse">
<stop stop-color="#9013FE"/>
<stop offset="1" stop-color="#008FEC"/>
</linearGradient>
</defs>
</svg>
